<?xml version="1.0" encoding="us-ascii" standalone="no"?><svg xmlns="http://www.w3.org/2000/svg" xmlns:xlink="http://www.w3.org/1999/xlink" contentStyleType="text/css" height="1018.75px" preserveAspectRatio="none" style="width:1882px;height:1018px;" version="1.1" viewBox="0 0 1882 1018" width="1882.2917px" zoomAndPan="magnify"><defs><linearGradient id="gvq31umazzhhv0" x1="50%" x2="50%" y1="0%" y2="100%"><stop offset="0%" stop-color="#59B6EC"/><stop offset="100%" stop-color="#2FA4E7"/></linearGradient></defs><g><line style="stroke:#BABDBF;stroke-width:1.0416666666666667;stroke-dasharray:5.0,5.0;" x1="84.375" x2="84.375" y1="51.0091" y2="969.043"/><line style="stroke:#BABDBF;stroke-width:1.0416666666666667;stroke-dasharray:5.0,5.0;" x1="280.7292" x2="280.7292" y1="51.0091" y2="969.043"/><line style="stroke:#BABDBF;stroke-width:1.0416666666666667;stroke-dasharray:5.0,5.0;" x1="500" x2="500" y1="51.0091" y2="969.043"/><line style="stroke:#BABDBF;stroke-width:1.0416666666666667;stroke-dasharray:5.0,5.0;" x1="653.125" x2="653.125" y1="51.0091" y2="969.043"/><line style="stroke:#BABDBF;stroke-width:1.0416666666666667;stroke-dasharray:5.0,5.0;" x1="856.25" x2="856.25" y1="51.0091" y2="969.043"/><line style="stroke:#BABDBF;stroke-width:1.0416666666666667;stroke-dasharray:5.0,5.0;" x1="1089.5833" x2="1089.5833" y1="51.0091" y2="969.043"/><line style="stroke:#BABDBF;stroke-width:1.0416666666666667;stroke-dasharray:5.0,5.0;" x1="1452.6042" x2="1452.6042" y1="51.0091" y2="969.043"/><line style="stroke:#BABDBF;stroke-width:1.0416666666666667;stroke-dasharray:5.0,5.0;" x1="1638.0208" x2="1638.0208" y1="51.0091" y2="969.043"/><line style="stroke:#BABDBF;stroke-width:1.0416666666666667;stroke-dasharray:5.0,5.0;" x1="1824.4792" x2="1824.4792" y1="51.0091" y2="969.043"/><rect fill="url(#gvq31umazzhhv0)" height="39.5508" rx="4.1667" ry="4.1667" style="stroke:#2FA4E7;stroke-width:1.0416666666666667;" width="55.2083" x="57.2917" y="10.4167"/><text fill="#FFFFFF" font-family="Verdana" font-size="12.5" lengthAdjust="spacing" textLength="30.2083" x="69.7917" y="34.5194">User</text><rect fill="url(#gvq31umazzhhv0)" height="39.5508" rx="4.1667" ry="4.1667" style="stroke:#2FA4E7;stroke-width:1.0416666666666667;" width="55.2083" x="57.2917" y="968.0013"/><text fill="#FFFFFF" font-family="Verdana" font-size="12.5" lengthAdjust="spacing" textLength="30.2083" x="69.7917" y="992.1041">User</text><rect fill="url(#gvq31umazzhhv0)" height="39.5508" rx="4.1667" ry="4.1667" style="stroke:#2FA4E7;stroke-width:1.0416666666666667;" width="83.3333" x="239.0625" y="10.4167"/><text fill="#FFFFFF" font-family="Verdana" font-size="12.5" lengthAdjust="spacing" textLength="58.3333" x="251.5625" y="34.5194">CoinStats</text><rect fill="url(#gvq31umazzhhv0)" height="39.5508" rx="4.1667" ry="4.1667" style="stroke:#2FA4E7;stroke-width:1.0416666666666667;" width="83.3333" x="239.0625" y="968.0013"/><text fill="#FFFFFF" font-family="Verdana" font-size="12.5" lengthAdjust="spacing" textLength="58.3333" x="251.5625" y="992.1041">CoinStats</text><rect fill="url(#gvq31umazzhhv0)" height="39.5508" rx="4.1667" ry="4.1667" style="stroke:#2FA4E7;stroke-width:1.0416666666666667;" width="42.7083" x="479.1667" y="10.4167"/><text fill="#FFFFFF" font-family="Verdana" font-size="12.5" lengthAdjust="spacing" textLength="17.7083" x="491.6667" y="34.5194">API</text><rect fill="url(#gvq31umazzhhv0)" height="39.5508" rx="4.1667" ry="4.1667" style="stroke:#2FA4E7;stroke-width:1.0416666666666667;" width="42.7083" x="479.1667" y="968.0013"/><text fill="#FFFFFF" font-family="Verdana" font-size="12.5" lengthAdjust="spacing" textLength="17.7083" x="491.6667" y="992.1041">API</text><rect fill="url(#gvq31umazzhhv0)" height="39.5508" rx="4.1667" ry="4.1667" style="stroke:#2FA4E7;stroke-width:1.0416666666666667;" width="76.0417" x="615.625" y="10.4167"/><text fill="#FFFFFF" font-family="Verdana" font-size="12.5" lengthAdjust="spacing" textLength="51.0417" x="628.125" y="34.5194">Settings</text><rect fill="url(#gvq31umazzhhv0)" height="39.5508" rx="4.1667" ry="4.1667" style="stroke:#2FA4E7;stroke-width:1.0416666666666667;" width="76.0417" x="615.625" y="968.0013"/><text fill="#FFFFFF" font-family="Verdana" font-size="12.5" lengthAdjust="spacing" textLength="51.0417" x="628.125" y="992.1041">Settings</text><rect fill="url(#gvq31umazzhhv0)" height="39.5508" rx="4.1667" ry="4.1667" style="stroke:#2FA4E7;stroke-width:1.0416666666666667;" width="141.6667" x="785.4167" y="10.4167"/><text fill="#FFFFFF" font-family="Verdana" font-size="12.5" lengthAdjust="spacing" textLength="116.6667" x="797.9167" y="34.5194">TransactionHistory</text><rect fill="url(#gvq31umazzhhv0)" height="39.5508" rx="4.1667" ry="4.1667" style="stroke:#2FA4E7;stroke-width:1.0416666666666667;" width="141.6667" x="785.4167" y="968.0013"/><text fill="#FFFFFF" font-family="Verdana" font-size="12.5" lengthAdjust="spacing" textLength="116.6667" x="797.9167" y="992.1041">TransactionHistory</text><rect fill="url(#gvq31umazzhhv0)" height="39.5508" rx="4.1667" ry="4.1667" style="stroke:#2FA4E7;stroke-width:1.0416666666666667;" width="138.5417" x="1020.8333" y="10.4167"/><text fill="#FFFFFF" font-family="Verdana" font-size="12.5" lengthAdjust="spacing" textLength="113.5417" x="1033.3333" y="34.5194">OpportunityFinder</text><rect fill="url(#gvq31umazzhhv0)" height="39.5508" rx="4.1667" ry="4.1667" style="stroke:#2FA4E7;stroke-width:1.0416666666666667;" width="138.5417" x="1020.8333" y="968.0013"/><text fill="#FFFFFF" font-family="Verdana" font-size="12.5" lengthAdjust="spacing" textLength="113.5417" x="1033.3333" y="992.1041">OpportunityFinder</text><rect fill="url(#gvq31umazzhhv0)" height="39.5508" rx="4.1667" ry="4.1667" style="stroke:#2FA4E7;stroke-width:1.0416666666666667;" width="91.6667" x="1406.7708" y="10.4167"/><text fill="#FFFFFF" font-family="Verdana" font-size="12.5" lengthAdjust="spacing" textLength="66.6667" x="1419.2708" y="34.5194">Algorithm1</text><rect fill="url(#gvq31umazzhhv0)" height="39.5508" rx="4.1667" ry="4.1667" style="stroke:#2FA4E7;stroke-width:1.0416666666666667;" width="91.6667" x="1406.7708" y="968.0013"/><text fill="#FFFFFF" font-family="Verdana" font-size="12.5" lengthAdjust="spacing" textLength="66.6667" x="1419.2708" y="992.1041">Algorithm1</text><rect fill="url(#gvq31umazzhhv0)" height="39.5508" rx="4.1667" ry="4.1667" style="stroke:#2FA4E7;stroke-width:1.0416666666666667;" width="92.7083" x="1592.1875" y="10.4167"/><text fill="#FFFFFF" font-family="Verdana" font-size="12.5" lengthAdjust="spacing" textLength="67.7083" x="1604.6875" y="34.5194">Algorithm2</text><rect fill="url(#gvq31umazzhhv0)" height="39.5508" rx="4.1667" ry="4.1667" style="stroke:#2FA4E7;stroke-width:1.0416666666666667;" width="92.7083" x="1592.1875" y="968.0013"/><text fill="#FFFFFF" font-family="Verdana" font-size="12.5" lengthAdjust="spacing" textLength="67.7083" x="1604.6875" y="992.1041">Algorithm2</text><rect fill="url(#gvq31umazzhhv0)" height="39.5508" rx="4.1667" ry="4.1667" style="stroke:#2FA4E7;stroke-width:1.0416666666666667;" width="92.7083" x="1778.6458" y="10.4167"/><text fill="#FFFFFF" font-family="Verdana" font-size="12.5" lengthAdjust="spacing" textLength="67.7083" x="1791.1458" y="34.5194">Algorithm3</text><rect fill="url(#gvq31umazzhhv0)" height="39.5508" rx="4.1667" ry="4.1667" style="stroke:#2FA4E7;stroke-width:1.0416666666666667;" width="92.7083" x="1778.6458" y="968.0013"/><text fill="#FFFFFF" font-family="Verdana" font-size="12.5" lengthAdjust="spacing" textLength="67.7083" x="1791.1458" y="992.1041">Algorithm3</text><polygon fill="#2FA4E7" points="268.2292,88.4766,278.6458,92.6432,268.2292,96.8099,272.3958,92.6432" style="stroke:#2FA4E7;stroke-width:1.0416666666666667;"/><line style="stroke:#2FA4E7;stroke-width:3.125;" x1="84.8958" x2="274.4792" y1="92.6432" y2="92.6432"/><text fill="#343A40" font-family="Verdana" font-size="12.5" lengthAdjust="spacing" textLength="93.75" x="97.3958" y="82.4036">View Coins List</text><polygon fill="#2FA4E7" points="268.2292,128.0273,278.6458,132.194,268.2292,136.3607,272.3958,132.194" style="stroke:#2FA4E7;stroke-width:1.0416666666666667;"/><line style="stroke:#2FA4E7;stroke-width:3.125;" x1="84.8958" x2="274.4792" y1="132.194" y2="132.194"/><text fill="#343A40" font-family="Verdana" font-size="12.5" lengthAdjust="spacing" textLength="115.625" x="97.3958" y="121.9543">Enter Filter Search</text><line style="stroke:#2FA4E7;stroke-width:3.125;" x1="280.7292" x2="324.4792" y1="171.7448" y2="171.7448"/><line style="stroke:#2FA4E7;stroke-width:3.125;" x1="324.4792" x2="324.4792" y1="171.7448" y2="185.2865"/><line style="stroke:#2FA4E7;stroke-width:3.125;" x1="281.7708" x2="324.4792" y1="185.2865" y2="185.2865"/><polygon fill="#2FA4E7" points="292.1875,181.1198,281.7708,185.2865,292.1875,189.4531,288.0208,185.2865" style="stroke:#2FA4E7;stroke-width:1.0416666666666667;"/><text fill="#343A40" font-family="Verdana" font-size="12.5" lengthAdjust="spacing" textLength="194.7917" x="293.2292" y="161.5051">Update Display based on Filter</text><polygon fill="#2FA4E7" points="488.0208,220.6706,498.4375,224.8372,488.0208,229.0039,492.1875,224.8372" style="stroke:#2FA4E7;stroke-width:1.0416666666666667;"/><line style="stroke:#2FA4E7;stroke-width:3.125;" x1="280.7292" x2="494.2708" y1="224.8372" y2="224.8372"/><text fill="#343A40" font-family="Verdana" font-size="12.5" lengthAdjust="spacing" textLength="114.5833" x="293.2292" y="214.5976">Request Coin Data</text><polygon fill="#2FA4E7" points="292.1875,260.2214,281.7708,264.388,292.1875,268.5547,288.0208,264.388" style="stroke:#2FA4E7;stroke-width:1.0416666666666667;"/><line style="stroke:#2FA4E7;stroke-width:3.125;" x1="285.9375" x2="499.4792" y1="264.388" y2="264.388"/><text fill="#343A40" font-family="Verdana" font-size="12.5" lengthAdjust="spacing" textLength="110.4167" x="303.6458" y="254.1484">Provide Coin Data</text><polygon fill="#2FA4E7" points="96.3542,299.7721,85.9375,303.9388,96.3542,308.1055,92.1875,303.9388" style="stroke:#2FA4E7;stroke-width:1.0416666666666667;"/><line style="stroke:#2FA4E7;stroke-width:3.125;" x1="90.1042" x2="279.6875" y1="303.9388" y2="303.9388"/><text fill="#343A40" font-family="Verdana" font-size="12.5" lengthAdjust="spacing" textLength="160.4167" x="107.8125" y="293.6991">Display Updated Coin List</text><polygon fill="#2FA4E7" points="641.1458,339.3229,651.5625,343.4896,641.1458,347.6563,645.3125,343.4896" style="stroke:#2FA4E7;stroke-width:1.0416666666666667;"/><line style="stroke:#2FA4E7;stroke-width:3.125;" x1="84.8958" x2="647.3958" y1="343.4896" y2="343.4896"/><text fill="#343A40" font-family="Verdana" font-size="12.5" lengthAdjust="spacing" textLength="89.5833" x="97.3958" y="333.2499">Open Settings</text><polygon fill="#2FA4E7" points="641.1458,378.8737,651.5625,383.0404,641.1458,387.207,645.3125,383.0404" style="stroke:#2FA4E7;stroke-width:1.0416666666666667;"/><line style="stroke:#2FA4E7;stroke-width:3.125;" x1="84.8958" x2="647.3958" y1="383.0404" y2="383.0404"/><text fill="#343A40" font-family="Verdana" font-size="12.5" lengthAdjust="spacing" textLength="135.4167" x="97.3958" y="372.8007">Enter Binance API Key</text><polygon fill="#2FA4E7" points="96.3542,418.4245,85.9375,422.5911,96.3542,426.7578,92.1875,422.5911" style="stroke:#2FA4E7;stroke-width:1.0416666666666667;"/><line style="stroke:#2FA4E7;stroke-width:3.125;" x1="90.1042" x2="652.6042" y1="422.5911" y2="422.5911"/><text fill="#343A40" font-family="Verdana" font-size="12.5" lengthAdjust="spacing" textLength="141.6667" x="107.8125" y="412.3515">Confirm API Key Saved</text><polygon fill="#2FA4E7" points="843.75,457.9753,854.1667,462.1419,843.75,466.3086,847.9167,462.1419" style="stroke:#2FA4E7;stroke-width:1.0416666666666667;"/><line style="stroke:#2FA4E7;stroke-width:3.125;" x1="84.8958" x2="850" y1="462.1419" y2="462.1419"/><text fill="#343A40" font-family="Verdana" font-size="12.5" lengthAdjust="spacing" textLength="155.2083" x="97.3958" y="451.9023">View Transaction History</text><polygon fill="#2FA4E7" points="511.9792,497.526,501.5625,501.6927,511.9792,505.8594,507.8125,501.6927" style="stroke:#2FA4E7;stroke-width:1.0416666666666667;"/><line style="stroke:#2FA4E7;stroke-width:3.125;" x1="505.7292" x2="855.2083" y1="501.6927" y2="501.6927"/><text fill="#343A40" font-family="Verdana" font-size="12.5" lengthAdjust="spacing" textLength="159.375" x="523.4375" y="491.453">Request Transaction Data</text><polygon fill="#2FA4E7" points="843.75,537.0768,854.1667,541.2435,843.75,545.4102,847.9167,541.2435" style="stroke:#2FA4E7;stroke-width:1.0416666666666667;"/><line style="stroke:#2FA4E7;stroke-width:3.125;" x1="500.5208" x2="850" y1="541.2435" y2="541.2435"/><text fill="#343A40" font-family="Verdana" font-size="12.5" lengthAdjust="spacing" textLength="155.2083" x="513.0208" y="531.0038">Provide Transaction Data</text><polygon fill="#2FA4E7" points="1077.6042,576.6276,1088.0208,580.7943,1077.6042,584.9609,1081.7708,580.7943" style="stroke:#2FA4E7;stroke-width:1.0416666666666667;"/><line style="stroke:#2FA4E7;stroke-width:3.125;" x1="856.25" x2="1083.8542" y1="580.7943" y2="580.7943"/><text fill="#343A40" font-family="Verdana" font-size="12.5" lengthAdjust="spacing" textLength="157.2917" x="868.75" y="570.5546">Analyze Transaction Data</text><line style="stroke:#2FA4E7;stroke-width:3.125;" x1="1090.1042" x2="1133.8542" y1="620.3451" y2="620.3451"/><line style="stroke:#2FA4E7;stroke-width:3.125;" x1="1133.8542" x2="1133.8542" y1="620.3451" y2="633.8867"/><line style="stroke:#2FA4E7;stroke-width:3.125;" x1="1091.1458" x2="1133.8542" y1="633.8867" y2="633.8867"/><polygon fill="#2FA4E7" points="1101.5625,629.7201,1091.1458,633.8867,1101.5625,638.0534,1097.3958,633.8867" style="stroke:#2FA4E7;stroke-width:1.0416666666666667;"/><text fill="#343A40" font-family="Verdana" font-size="12.5" lengthAdjust="spacing" textLength="135.4167" x="1102.6042" y="610.1054">Identify Opportunities</text><polygon fill="#2FA4E7" points="96.3542,669.2708,85.9375,673.4375,96.3542,677.6042,92.1875,673.4375" style="stroke:#2FA4E7;stroke-width:1.0416666666666667;"/><line style="stroke:#2FA4E7;stroke-width:3.125;" x1="90.1042" x2="1089.0625" y1="673.4375" y2="673.4375"/><text fill="#343A40" font-family="Verdana" font-size="12.5" lengthAdjust="spacing" textLength="206.25" x="107.8125" y="663.1978">Display Opportunity Suggestions</text><polygon fill="#2FA4E7" points="1077.6042,708.8216,1088.0208,712.9883,1077.6042,717.1549,1081.7708,712.9883" style="stroke:#2FA4E7;stroke-width:1.0416666666666667;"/><line style="stroke:#2FA4E7;stroke-width:3.125;" x1="84.8958" x2="1083.8542" y1="712.9883" y2="712.9883"/><text fill="#343A40" font-family="Verdana" font-size="12.5" lengthAdjust="spacing" textLength="190.625" x="97.3958" y="702.7486">View Opportunity Suggestions</text><polygon fill="#2FA4E7" points="96.3542,748.3724,85.9375,752.5391,96.3542,756.7057,92.1875,752.5391" style="stroke:#2FA4E7;stroke-width:1.0416666666666667;"/><line style="stroke:#2FA4E7;stroke-width:3.125;" x1="90.1042" x2="1089.0625" y1="752.5391" y2="752.5391"/><text fill="#343A40" font-family="Verdana" font-size="12.5" lengthAdjust="spacing" textLength="262.5" x="107.8125" y="742.2994">Display Suggested Buy/Sell Opportunities</text><polygon fill="#2FA4E7" points="1077.6042,787.9232,1088.0208,792.0898,1077.6042,796.2565,1081.7708,792.0898" style="stroke:#2FA4E7;stroke-width:1.0416666666666667;"/><line style="stroke:#2FA4E7;stroke-width:3.125;" x1="84.8958" x2="1083.8542" y1="792.0898" y2="792.0898"/><text fill="#343A40" font-family="Verdana" font-size="12.5" lengthAdjust="spacing" textLength="117.7083" x="97.3958" y="781.8502">Select Opportunity</text><polygon fill="#2FA4E7" points="1440.1042,827.474,1450.5208,831.6406,1440.1042,835.8073,1444.2708,831.6406" style="stroke:#2FA4E7;stroke-width:1.0416666666666667;"/><line style="stroke:#2FA4E7;stroke-width:3.125;" x1="1090.1042" x2="1446.3542" y1="831.6406" y2="831.6406"/><text fill="#343A40" font-family="Verdana" font-size="12.5" lengthAdjust="spacing" textLength="327.0833" x="1102.6042" y="821.401">Calculate using Moving Average Crossover Strategy</text><polygon fill="#2FA4E7" points="1626.0417,867.0247,1636.4583,871.1914,1626.0417,875.3581,1630.2083,871.1914" style="stroke:#2FA4E7;stroke-width:1.0416666666666667;"/><line style="stroke:#2FA4E7;stroke-width:3.125;" x1="1090.1042" x2="1632.2917" y1="871.1914" y2="871.1914"/><text fill="#343A40" font-family="Verdana" font-size="12.5" lengthAdjust="spacing" textLength="315.625" x="1102.6042" y="860.9517">Calculate using RSI Overbought/Oversold Strategy</text><polygon fill="#2FA4E7" points="1812.5,906.5755,1822.9167,910.7422,1812.5,914.9089,1816.6667,910.7422" style="stroke:#2FA4E7;stroke-width:1.0416666666666667;"/><line style="stroke:#2FA4E7;stroke-width:3.125;" x1="1090.1042" x2="1818.75" y1="910.7422" y2="910.7422"/><text fill="#343A40" font-family="Verdana" font-size="12.5" lengthAdjust="spacing" textLength="267.7083" x="1102.6042" y="900.5025">Calculate using Volatility Breakout Strategy</text><polygon fill="#2FA4E7" points="96.3542,946.1263,85.9375,950.293,96.3542,954.4596,92.1875,950.293" style="stroke:#2FA4E7;stroke-width:1.0416666666666667;"/><line style="stroke:#2FA4E7;stroke-width:3.125;" x1="90.1042" x2="1089.0625" y1="950.293" y2="950.293"/><text fill="#343A40" font-family="Verdana" font-size="12.5" lengthAdjust="spacing" textLength="170.8333" x="107.8125" y="940.0533">Display Opportunity Details</text><!--SRC=[ZLFBRi8m4BpdAzmFg53R6uTA0OgAsWf42lSbMP9LZPtQwrJfrzVX4G89XPCVCpkpkrxVSOOR534Q9n5K42mi6d7_B8QQLCJ0jY-MX3_RinNlPBcBygBOtur9Lak4OE8igE4pxY9FW56CoEOIIh42YudGQXzz6XRE9dqnns-7bhSQOWGCWRy-4vqPNL223Sw9JfLolxRSPP3ioDkIwfeYP2QLUiLfZge-Tk2xaWUaGCLO9IhUi0mE-D5qgDMQpER0414Kc1mDFmqe2p6JLgy-4stAVSCRWDWZGPlSQb8phDchBfz3qrentJxJFDU6dI8knwIIghXGWIn_EnI25lc2mYH1nRGk6nYXxGu_VSK6HKGkJNtrtjuUMzlXjktifS0RFFTqFpi3L_OYbF8ix__CFHrZRYBTbg5CjI7EDWz-Ua36JbR_nLa_L-B3lvXVmW8Df7xSZRPM5zMdO-DPwJN9nxRaF9g8gPTOQPTctAksLilaLiMdjk9I-mF9ghy3W_2b7LzHk_oo8sGWQVy0]--></g></svg>